<?xml version="1.0" encoding="iso-8859-1"?>
<!-- Uploaded to: SVG Repo, www.svgrepo.com, Generator: SVG Repo Mixer Tools -->
<svg height="800px" width="800px" version="1.1" id="Layer_1" xmlns="http://www.w3.org/2000/svg" xmlns:xlink="http://www.w3.org/1999/xlink" 
	 viewBox="0 0 512.001 512.001" xml:space="preserve">
<path style="fill:#CAD1D8;" d="M24,16h464c13.254,0,24,10.745,24,24v432c0,13.254-10.745,24-24,24H24C10.745,496,0,485.255,0,472V40
	C0,26.745,10.745,16,24,16z"/>
<g>
	<circle style="fill:#9BA7AF;" cx="24.002" cy="47.995" r="7.998"/>
	<circle style="fill:#9BA7AF;" cx="56.002" cy="47.995" r="7.998"/>
	<circle style="fill:#9BA7AF;" cx="88.002" cy="47.995" r="7.998"/>
</g>
<path style="fill:#FFFFFF;" d="M24,80h464c4.418,0,8,3.582,8,8v384c0,4.418-3.582,8-8,8H24c-4.418,0-8-3.582-8-8V88
	C16,83.582,19.582,80,24,80z"/>
<path style="fill:#E2E5E7;" d="M120,40h368c4.418,0,8,3.582,8,8l0,0c0,4.418-3.582,8-8,8H120c-4.418,0-8-3.582-8-8l0,0
	C112,43.582,115.582,40,120,40z"/>
<circle style="fill:#ABE1FA;" cx="96" cy="167.998" r="32"/>
<path style="fill:#1B6FAB;" d="M120,189.12c-0.524-2.804-2.33-5.202-4.88-6.48l-8-4.88c-0.976-0.568-2.026-0.998-3.12-1.28v-3.6
	c4.939-4.418,5.362-12.004,0.945-16.945c-4.418-4.939-12.004-5.362-16.945-0.945s-5.362,12.004-0.945,16.945
	c0.297,0.332,0.612,0.647,0.945,0.945v3.6c-1.039,0.295-2.034,0.725-2.96,1.28l-8,4.88c-2.551,1.278-4.356,3.675-4.88,6.48
	c11.739,13.211,31.965,14.403,45.176,2.663C118.276,190.949,119.165,190.059,120,189.12z"/>
<g>
	<path style="fill:#CAD1D8;" d="M192,264h240c4.418,0,8,3.582,8,8l0,0c0,4.418-3.582,8-8,8H192c-4.418,0-8.001-3.582-8.001-8l0,0
		C184.001,267.582,187.582,264,192,264z"/>
	<path style="fill:#CAD1D8;" d="M192,328h192c4.418,0,8,3.582,8,8l0,0c0,4.418-3.582,8-8,8H192c-4.418,0-8.001-3.582-8.001-8l0,0
		C184.001,331.582,187.582,328,192,328z"/>
	<path style="fill:#CAD1D8;" d="M192,296h152c4.418,0,8,3.582,8,8l0,0c0,4.418-3.582,8-8,8H192c-4.418,0-8.001-3.582-8.001-8l0,0
		C184.001,299.582,187.582,296,192,296z"/>
	<path style="fill:#CAD1D8;" d="M192,136.001h240c4.418,0,8,3.582,8,8l0,0c0,4.418-3.582,8.001-8,8.001H192
		c-4.418,0-8.001-3.582-8.001-8.001l0,0C184.001,139.582,187.582,136.001,192,136.001z"/>
	<path style="fill:#CAD1D8;" d="M192,200.001h192c4.418,0,8,3.582,8,8l0,0c0,4.418-3.582,8.001-8,8.001H192
		c-4.418,0-8.001-3.582-8.001-8.001l0,0C184.001,203.582,187.582,200.001,192,200.001z"/>
	<path style="fill:#CAD1D8;" d="M192,168.001h152c4.418,0,8,3.582,8,8l0,0c0,4.418-3.582,8.001-8,8.001H192
		c-4.418,0-8.001-3.582-8.001-8.001l0,0C184.001,171.582,187.582,168.001,192,168.001z"/>
	<path style="fill:#CAD1D8;" d="M192,384h192c4.418,0,8,3.582,8,8l0,0c0,4.418-3.582,8-8,8H192c-4.418,0-8.001-3.582-8.001-8l0,0
		C184.001,387.582,187.582,384,192,384z"/>
	<path style="fill:#CAD1D8;" d="M192,416h152c4.418,0,8,3.582,8,8l0,0c0,4.418-3.582,8-8,8H192c-4.418,0-8.001-3.582-8.001-8l0,0
		C184.001,419.582,187.582,416,192,416z"/>
	<path style="fill:#CAD1D8;" d="M136.001,240L136.001,240c0,4.418-3.582,8.001-8.001,8.001H72c-4.418,0-8-3.582-8-8.001l0,0
		c0-4.418,3.582-8.001,8-8.001h56C132.418,232.001,136.001,235.582,136.001,240z"/>
	<path style="fill:#CAD1D8;" d="M120,272L120,272c0,4.418-3.582,8-8,8H72c-4.418,0-8-3.582-8-8l0,0c0-4.418,3.582-8,8-8h40.001
		C116.418,264,120,267.582,120,272z"/>
	<path style="fill:#CAD1D8;" d="M136.001,336L136.001,336c0,4.418-3.582,8-8.001,8H72c-4.418,0-8-3.582-8-8l0,0c0-4.418,3.582-8,8-8
		h56C132.418,328,136.001,331.582,136.001,336z"/>
	<path style="fill:#CAD1D8;" d="M120,368L120,368c0,4.418-3.582,8-8,8H72c-4.418,0-8-3.582-8-8l0,0c0-4.418,3.582-8,8-8h40.001
		C116.418,360,120,363.582,120,368z"/>
</g>
</svg>